<mxfile host="app.diagrams.net" modified="2021-09-18T20:04:11.456Z" agent="5.0 (Windows NT 10.0; Win64; x64) AppleWebKit/537.36 (KHTML, like Gecko) Chrome/93.0.4577.82 Safari/537.36 Edg/93.0.961.52" etag="Iaz3pR9O3J5TgYx3OdHv" version="15.2.9" type="github">
  <diagram id="C5RBs43oDa-KdzZeNtuy" name="Page-1">
    <mxGraphModel dx="782" dy="1637" grid="1" gridSize="10" guides="1" tooltips="1" connect="1" arrows="1" fold="1" page="1" pageScale="1" pageWidth="827" pageHeight="1169" math="0" shadow="0">
      <root>
        <mxCell id="WIyWlLk6GJQsqaUBKTNV-0" />
        <mxCell id="WIyWlLk6GJQsqaUBKTNV-1" parent="WIyWlLk6GJQsqaUBKTNV-0" />
        <mxCell id="D-a50ixha14DHP2CYBjK-1" value="Початок виконання програми" style="strokeWidth=2;html=1;shape=mxgraph.flowchart.terminator;whiteSpace=wrap;" parent="WIyWlLk6GJQsqaUBKTNV-1" vertex="1">
          <mxGeometry x="330" y="-420" width="150" height="60" as="geometry" />
        </mxCell>
        <mxCell id="D-a50ixha14DHP2CYBjK-2" value="" style="endArrow=classic;html=1;" parent="WIyWlLk6GJQsqaUBKTNV-1" edge="1">
          <mxGeometry width="50" height="50" relative="1" as="geometry">
            <mxPoint x="404.5" y="-360" as="sourcePoint" />
            <mxPoint x="404.5" y="-320" as="targetPoint" />
          </mxGeometry>
        </mxCell>
        <mxCell id="D-a50ixha14DHP2CYBjK-3" value="" style="endArrow=classic;html=1;" parent="WIyWlLk6GJQsqaUBKTNV-1" edge="1">
          <mxGeometry width="50" height="50" relative="1" as="geometry">
            <mxPoint x="404.5" y="-260" as="sourcePoint" />
            <mxPoint x="404.5" y="-220" as="targetPoint" />
          </mxGeometry>
        </mxCell>
        <mxCell id="D-a50ixha14DHP2CYBjK-4" value="" style="endArrow=classic;html=1;" parent="WIyWlLk6GJQsqaUBKTNV-1" edge="1">
          <mxGeometry width="50" height="50" relative="1" as="geometry">
            <mxPoint x="404.5" y="-180" as="sourcePoint" />
            <mxPoint x="404.5" y="-140" as="targetPoint" />
          </mxGeometry>
        </mxCell>
        <mxCell id="D-a50ixha14DHP2CYBjK-6" value="" style="endArrow=classic;html=1;" parent="WIyWlLk6GJQsqaUBKTNV-1" edge="1">
          <mxGeometry width="50" height="50" relative="1" as="geometry">
            <mxPoint x="404.5" y="260" as="sourcePoint" />
            <mxPoint x="404.5" y="300" as="targetPoint" />
          </mxGeometry>
        </mxCell>
        <mxCell id="D-a50ixha14DHP2CYBjK-8" value="" style="endArrow=classic;html=1;" parent="WIyWlLk6GJQsqaUBKTNV-1" edge="1">
          <mxGeometry width="50" height="50" relative="1" as="geometry">
            <mxPoint x="404.5" y="40" as="sourcePoint" />
            <mxPoint x="404.5" y="80" as="targetPoint" />
          </mxGeometry>
        </mxCell>
        <mxCell id="D-a50ixha14DHP2CYBjK-9" value="Значення x" style="shape=parallelogram;perimeter=parallelogramPerimeter;whiteSpace=wrap;html=1;fixedSize=1;" parent="WIyWlLk6GJQsqaUBKTNV-1" vertex="1">
          <mxGeometry x="340" y="-320" width="120" height="60" as="geometry" />
        </mxCell>
        <mxCell id="D-a50ixha14DHP2CYBjK-10" value="A=x&lt;sup&gt;2&lt;/sup&gt;sin(x/2)" style="rounded=0;whiteSpace=wrap;html=1;" parent="WIyWlLk6GJQsqaUBKTNV-1" vertex="1">
          <mxGeometry x="340" y="-220" width="120" height="40" as="geometry" />
        </mxCell>
        <mxCell id="D-a50ixha14DHP2CYBjK-11" value="x&amp;lt;= -5" style="rhombus;whiteSpace=wrap;html=1;" parent="WIyWlLk6GJQsqaUBKTNV-1" vertex="1">
          <mxGeometry x="325" y="-140" width="160" height="60" as="geometry" />
        </mxCell>
        <mxCell id="D-a50ixha14DHP2CYBjK-12" value="-5&amp;lt;x &amp;amp;&amp;amp; x&amp;lt;=0" style="rhombus;whiteSpace=wrap;html=1;" parent="WIyWlLk6GJQsqaUBKTNV-1" vertex="1">
          <mxGeometry x="325" y="80" width="160" height="60" as="geometry" />
        </mxCell>
        <mxCell id="D-a50ixha14DHP2CYBjK-13" value="x&amp;gt;0" style="rhombus;whiteSpace=wrap;html=1;" parent="WIyWlLk6GJQsqaUBKTNV-1" vertex="1">
          <mxGeometry x="325" y="300" width="160" height="60" as="geometry" />
        </mxCell>
        <mxCell id="D-a50ixha14DHP2CYBjK-15" value="" style="endArrow=none;html=1;" parent="WIyWlLk6GJQsqaUBKTNV-1" edge="1">
          <mxGeometry width="50" height="50" relative="1" as="geometry">
            <mxPoint x="485" y="-110" as="sourcePoint" />
            <mxPoint x="560" y="-110" as="targetPoint" />
          </mxGeometry>
        </mxCell>
        <mxCell id="D-a50ixha14DHP2CYBjK-16" value="" style="endArrow=classic;html=1;" parent="WIyWlLk6GJQsqaUBKTNV-1" edge="1">
          <mxGeometry width="50" height="50" relative="1" as="geometry">
            <mxPoint x="560" y="-110" as="sourcePoint" />
            <mxPoint x="560" y="-50" as="targetPoint" />
          </mxGeometry>
        </mxCell>
        <mxCell id="D-a50ixha14DHP2CYBjK-18" value="B = arctg(e&lt;sup&gt;x&lt;/sup&gt;)" style="rounded=0;whiteSpace=wrap;html=1;" parent="WIyWlLk6GJQsqaUBKTNV-1" vertex="1">
          <mxGeometry x="500" y="-50" width="120" height="60" as="geometry" />
        </mxCell>
        <mxCell id="D-a50ixha14DHP2CYBjK-19" value="" style="endArrow=none;html=1;" parent="WIyWlLk6GJQsqaUBKTNV-1" edge="1">
          <mxGeometry width="50" height="50" relative="1" as="geometry">
            <mxPoint x="230" y="-110" as="sourcePoint" />
            <mxPoint x="325" y="-110.5" as="targetPoint" />
          </mxGeometry>
        </mxCell>
        <mxCell id="D-a50ixha14DHP2CYBjK-20" value="" style="endArrow=none;html=1;" parent="WIyWlLk6GJQsqaUBKTNV-1" edge="1">
          <mxGeometry width="50" height="50" relative="1" as="geometry">
            <mxPoint x="230" y="40" as="sourcePoint" />
            <mxPoint x="230" y="-110" as="targetPoint" />
          </mxGeometry>
        </mxCell>
        <mxCell id="D-a50ixha14DHP2CYBjK-21" value="" style="endArrow=none;html=1;" parent="WIyWlLk6GJQsqaUBKTNV-1" edge="1">
          <mxGeometry width="50" height="50" relative="1" as="geometry">
            <mxPoint x="230" y="40" as="sourcePoint" />
            <mxPoint x="560" y="40" as="targetPoint" />
          </mxGeometry>
        </mxCell>
        <mxCell id="D-a50ixha14DHP2CYBjK-22" value="" style="endArrow=none;html=1;" parent="WIyWlLk6GJQsqaUBKTNV-1" edge="1">
          <mxGeometry width="50" height="50" relative="1" as="geometry">
            <mxPoint x="560" y="40" as="sourcePoint" />
            <mxPoint x="560" y="10" as="targetPoint" />
          </mxGeometry>
        </mxCell>
        <mxCell id="D-a50ixha14DHP2CYBjK-23" value="" style="endArrow=none;html=1;" parent="WIyWlLk6GJQsqaUBKTNV-1" edge="1">
          <mxGeometry width="50" height="50" relative="1" as="geometry">
            <mxPoint x="485" y="109.5" as="sourcePoint" />
            <mxPoint x="560" y="109.5" as="targetPoint" />
          </mxGeometry>
        </mxCell>
        <mxCell id="D-a50ixha14DHP2CYBjK-26" value="" style="endArrow=classic;html=1;" parent="WIyWlLk6GJQsqaUBKTNV-1" edge="1">
          <mxGeometry width="50" height="50" relative="1" as="geometry">
            <mxPoint x="559.5" y="110" as="sourcePoint" />
            <mxPoint x="559.5" y="170" as="targetPoint" />
          </mxGeometry>
        </mxCell>
        <mxCell id="D-a50ixha14DHP2CYBjK-27" value="" style="endArrow=classic;html=1;" parent="WIyWlLk6GJQsqaUBKTNV-1" edge="1">
          <mxGeometry width="50" height="50" relative="1" as="geometry">
            <mxPoint x="404.41" y="480" as="sourcePoint" />
            <mxPoint x="404" y="530" as="targetPoint" />
          </mxGeometry>
        </mxCell>
        <mxCell id="D-a50ixha14DHP2CYBjK-28" value="B = 1+(x&lt;sup&gt;3&lt;/sup&gt;/4)" style="rounded=0;whiteSpace=wrap;html=1;" parent="WIyWlLk6GJQsqaUBKTNV-1" vertex="1">
          <mxGeometry x="500" y="170" width="120" height="60" as="geometry" />
        </mxCell>
        <mxCell id="D-a50ixha14DHP2CYBjK-29" value="" style="endArrow=none;html=1;" parent="WIyWlLk6GJQsqaUBKTNV-1" edge="1">
          <mxGeometry width="50" height="50" relative="1" as="geometry">
            <mxPoint x="230" y="110" as="sourcePoint" />
            <mxPoint x="325" y="109.5" as="targetPoint" />
          </mxGeometry>
        </mxCell>
        <mxCell id="D-a50ixha14DHP2CYBjK-30" value="" style="endArrow=none;html=1;" parent="WIyWlLk6GJQsqaUBKTNV-1" edge="1">
          <mxGeometry width="50" height="50" relative="1" as="geometry">
            <mxPoint x="229.5" y="260" as="sourcePoint" />
            <mxPoint x="229.5" y="110" as="targetPoint" />
          </mxGeometry>
        </mxCell>
        <mxCell id="D-a50ixha14DHP2CYBjK-31" value="" style="endArrow=none;html=1;" parent="WIyWlLk6GJQsqaUBKTNV-1" edge="1">
          <mxGeometry width="50" height="50" relative="1" as="geometry">
            <mxPoint x="230" y="260" as="sourcePoint" />
            <mxPoint x="560" y="260" as="targetPoint" />
          </mxGeometry>
        </mxCell>
        <mxCell id="D-a50ixha14DHP2CYBjK-33" value="" style="endArrow=none;html=1;" parent="WIyWlLk6GJQsqaUBKTNV-1" edge="1">
          <mxGeometry width="50" height="50" relative="1" as="geometry">
            <mxPoint x="560" y="260" as="sourcePoint" />
            <mxPoint x="560" y="230" as="targetPoint" />
          </mxGeometry>
        </mxCell>
        <mxCell id="D-a50ixha14DHP2CYBjK-34" value="" style="endArrow=none;html=1;" parent="WIyWlLk6GJQsqaUBKTNV-1" edge="1">
          <mxGeometry width="50" height="50" relative="1" as="geometry">
            <mxPoint x="230" y="330" as="sourcePoint" />
            <mxPoint x="325" y="329.5" as="targetPoint" />
          </mxGeometry>
        </mxCell>
        <mxCell id="D-a50ixha14DHP2CYBjK-35" value="" style="endArrow=none;html=1;" parent="WIyWlLk6GJQsqaUBKTNV-1" edge="1">
          <mxGeometry width="50" height="50" relative="1" as="geometry">
            <mxPoint x="230" y="480" as="sourcePoint" />
            <mxPoint x="230" y="330" as="targetPoint" />
          </mxGeometry>
        </mxCell>
        <mxCell id="D-a50ixha14DHP2CYBjK-36" value="" style="endArrow=none;html=1;" parent="WIyWlLk6GJQsqaUBKTNV-1" edge="1">
          <mxGeometry width="50" height="50" relative="1" as="geometry">
            <mxPoint x="230" y="480" as="sourcePoint" />
            <mxPoint x="560" y="480" as="targetPoint" />
          </mxGeometry>
        </mxCell>
        <mxCell id="D-a50ixha14DHP2CYBjK-37" value="" style="endArrow=none;html=1;" parent="WIyWlLk6GJQsqaUBKTNV-1" edge="1">
          <mxGeometry width="50" height="50" relative="1" as="geometry">
            <mxPoint x="485" y="329.40999999999974" as="sourcePoint" />
            <mxPoint x="560" y="329.40999999999974" as="targetPoint" />
          </mxGeometry>
        </mxCell>
        <mxCell id="D-a50ixha14DHP2CYBjK-38" value="" style="endArrow=classic;html=1;" parent="WIyWlLk6GJQsqaUBKTNV-1" edge="1">
          <mxGeometry width="50" height="50" relative="1" as="geometry">
            <mxPoint x="559.41" y="330" as="sourcePoint" />
            <mxPoint x="559.41" y="390" as="targetPoint" />
          </mxGeometry>
        </mxCell>
        <mxCell id="D-a50ixha14DHP2CYBjK-39" value="B = ln |x|-(x/5)" style="rounded=0;whiteSpace=wrap;html=1;" parent="WIyWlLk6GJQsqaUBKTNV-1" vertex="1">
          <mxGeometry x="500" y="380" width="120" height="60" as="geometry" />
        </mxCell>
        <mxCell id="D-a50ixha14DHP2CYBjK-40" value="" style="endArrow=none;html=1;" parent="WIyWlLk6GJQsqaUBKTNV-1" edge="1">
          <mxGeometry width="50" height="50" relative="1" as="geometry">
            <mxPoint x="560" y="480" as="sourcePoint" />
            <mxPoint x="560" y="440" as="targetPoint" />
          </mxGeometry>
        </mxCell>
        <mxCell id="D-a50ixha14DHP2CYBjK-42" value="" style="shape=image;html=1;verticalAlign=top;verticalLabelPosition=bottom;labelBackgroundColor=#ffffff;imageAspect=0;aspect=fixed;image=https://cdn4.iconfinder.com/data/icons/wirecons-free-vector-icons/32/add-128.png" parent="WIyWlLk6GJQsqaUBKTNV-1" vertex="1">
          <mxGeometry x="485" y="320" width="10" height="10" as="geometry" />
        </mxCell>
        <mxCell id="D-a50ixha14DHP2CYBjK-45" value="" style="shape=image;html=1;verticalAlign=top;verticalLabelPosition=bottom;labelBackgroundColor=#ffffff;imageAspect=0;aspect=fixed;image=https://cdn4.iconfinder.com/data/icons/wirecons-free-vector-icons/32/add-128.png" parent="WIyWlLk6GJQsqaUBKTNV-1" vertex="1">
          <mxGeometry x="485" y="-120" width="10" height="10" as="geometry" />
        </mxCell>
        <mxCell id="D-a50ixha14DHP2CYBjK-46" value="" style="shape=image;html=1;verticalAlign=top;verticalLabelPosition=bottom;labelBackgroundColor=#ffffff;imageAspect=0;aspect=fixed;image=https://cdn4.iconfinder.com/data/icons/wirecons-free-vector-icons/32/add-128.png" parent="WIyWlLk6GJQsqaUBKTNV-1" vertex="1">
          <mxGeometry x="490" y="100" width="10" height="10" as="geometry" />
        </mxCell>
        <mxCell id="D-a50ixha14DHP2CYBjK-48" value="" style="shape=image;html=1;verticalAlign=top;verticalLabelPosition=bottom;labelBackgroundColor=#ffffff;imageAspect=0;aspect=fixed;image=https://cdn4.iconfinder.com/data/icons/ionicons/512/icon-minus-128.png" parent="WIyWlLk6GJQsqaUBKTNV-1" vertex="1">
          <mxGeometry x="310" y="100" width="10" height="10" as="geometry" />
        </mxCell>
        <mxCell id="D-a50ixha14DHP2CYBjK-49" value="" style="shape=image;html=1;verticalAlign=top;verticalLabelPosition=bottom;labelBackgroundColor=#ffffff;imageAspect=0;aspect=fixed;image=https://cdn4.iconfinder.com/data/icons/ionicons/512/icon-minus-128.png" parent="WIyWlLk6GJQsqaUBKTNV-1" vertex="1">
          <mxGeometry x="310" y="320" width="10" height="10" as="geometry" />
        </mxCell>
        <mxCell id="D-a50ixha14DHP2CYBjK-50" value="" style="shape=image;html=1;verticalAlign=top;verticalLabelPosition=bottom;labelBackgroundColor=#ffffff;imageAspect=0;aspect=fixed;image=https://cdn4.iconfinder.com/data/icons/ionicons/512/icon-minus-128.png" parent="WIyWlLk6GJQsqaUBKTNV-1" vertex="1">
          <mxGeometry x="310" y="-120" width="10" height="10" as="geometry" />
        </mxCell>
        <mxCell id="D-a50ixha14DHP2CYBjK-52" value="y=A+B" style="rounded=0;whiteSpace=wrap;html=1;" parent="WIyWlLk6GJQsqaUBKTNV-1" vertex="1">
          <mxGeometry x="345" y="530" width="120" height="60" as="geometry" />
        </mxCell>
        <mxCell id="D-a50ixha14DHP2CYBjK-53" value="" style="endArrow=classic;html=1;" parent="WIyWlLk6GJQsqaUBKTNV-1" edge="1">
          <mxGeometry width="50" height="50" relative="1" as="geometry">
            <mxPoint x="404.41" y="590" as="sourcePoint" />
            <mxPoint x="404.41" y="640" as="targetPoint" />
          </mxGeometry>
        </mxCell>
        <mxCell id="D-a50ixha14DHP2CYBjK-54" value="y" style="shape=document;whiteSpace=wrap;html=1;boundedLbl=1;" parent="WIyWlLk6GJQsqaUBKTNV-1" vertex="1">
          <mxGeometry x="345" y="640" width="120" height="80" as="geometry" />
        </mxCell>
        <mxCell id="D-a50ixha14DHP2CYBjK-56" value="" style="endArrow=classic;html=1;" parent="WIyWlLk6GJQsqaUBKTNV-1" edge="1">
          <mxGeometry width="50" height="50" relative="1" as="geometry">
            <mxPoint x="404.82000000000033" y="710" as="sourcePoint" />
            <mxPoint x="404.82000000000033" y="760" as="targetPoint" />
            <Array as="points">
              <mxPoint x="404.41" y="730" />
            </Array>
          </mxGeometry>
        </mxCell>
        <mxCell id="D-a50ixha14DHP2CYBjK-58" value="x&amp;lt;=-5" style="rhombus;whiteSpace=wrap;html=1;" parent="WIyWlLk6GJQsqaUBKTNV-1" vertex="1">
          <mxGeometry x="325" y="760" width="160" height="60" as="geometry" />
        </mxCell>
        <mxCell id="D-a50ixha14DHP2CYBjK-59" value="" style="endArrow=none;html=1;" parent="WIyWlLk6GJQsqaUBKTNV-1" edge="1">
          <mxGeometry width="50" height="50" relative="1" as="geometry">
            <mxPoint x="485" y="790" as="sourcePoint" />
            <mxPoint x="550" y="790" as="targetPoint" />
          </mxGeometry>
        </mxCell>
        <mxCell id="D-a50ixha14DHP2CYBjK-60" value="" style="endArrow=classic;html=1;" parent="WIyWlLk6GJQsqaUBKTNV-1" edge="1">
          <mxGeometry width="50" height="50" relative="1" as="geometry">
            <mxPoint x="550" y="790" as="sourcePoint" />
            <mxPoint x="550" y="870" as="targetPoint" />
          </mxGeometry>
        </mxCell>
        <mxCell id="D-a50ixha14DHP2CYBjK-61" value="" style="endArrow=none;html=1;" parent="WIyWlLk6GJQsqaUBKTNV-1" edge="1">
          <mxGeometry width="50" height="50" relative="1" as="geometry">
            <mxPoint x="250" y="790" as="sourcePoint" />
            <mxPoint x="325" y="790" as="targetPoint" />
          </mxGeometry>
        </mxCell>
        <mxCell id="D-a50ixha14DHP2CYBjK-62" value="" style="endArrow=classic;html=1;" parent="WIyWlLk6GJQsqaUBKTNV-1" edge="1">
          <mxGeometry width="50" height="50" relative="1" as="geometry">
            <mxPoint x="250" y="790" as="sourcePoint" />
            <mxPoint x="250" y="900" as="targetPoint" />
          </mxGeometry>
        </mxCell>
        <mxCell id="D-a50ixha14DHP2CYBjK-63" value="B = arctg(e&lt;sup&gt;x&lt;/sup&gt;)" style="rounded=0;whiteSpace=wrap;html=1;" parent="WIyWlLk6GJQsqaUBKTNV-1" vertex="1">
          <mxGeometry x="485" y="870" width="120" height="60" as="geometry" />
        </mxCell>
        <mxCell id="D-a50ixha14DHP2CYBjK-65" value="x&amp;gt;0" style="rhombus;whiteSpace=wrap;html=1;" parent="WIyWlLk6GJQsqaUBKTNV-1" vertex="1">
          <mxGeometry x="170" y="900" width="160" height="60" as="geometry" />
        </mxCell>
        <mxCell id="D-a50ixha14DHP2CYBjK-66" value="" style="endArrow=none;html=1;" parent="WIyWlLk6GJQsqaUBKTNV-1" edge="1">
          <mxGeometry width="50" height="50" relative="1" as="geometry">
            <mxPoint x="330" y="930" as="sourcePoint" />
            <mxPoint x="380" y="930" as="targetPoint" />
          </mxGeometry>
        </mxCell>
        <mxCell id="D-a50ixha14DHP2CYBjK-69" value="" style="endArrow=none;html=1;" parent="WIyWlLk6GJQsqaUBKTNV-1" edge="1">
          <mxGeometry width="50" height="50" relative="1" as="geometry">
            <mxPoint x="120" y="930" as="sourcePoint" />
            <mxPoint x="170" y="930" as="targetPoint" />
          </mxGeometry>
        </mxCell>
        <mxCell id="D-a50ixha14DHP2CYBjK-70" value="" style="endArrow=classic;html=1;" parent="WIyWlLk6GJQsqaUBKTNV-1" edge="1">
          <mxGeometry width="50" height="50" relative="1" as="geometry">
            <mxPoint x="380" y="930" as="sourcePoint" />
            <mxPoint x="380" y="980" as="targetPoint" />
          </mxGeometry>
        </mxCell>
        <mxCell id="D-a50ixha14DHP2CYBjK-71" value="" style="endArrow=classic;html=1;" parent="WIyWlLk6GJQsqaUBKTNV-1" edge="1">
          <mxGeometry width="50" height="50" relative="1" as="geometry">
            <mxPoint x="120" y="930" as="sourcePoint" />
            <mxPoint x="120" y="980" as="targetPoint" />
          </mxGeometry>
        </mxCell>
        <mxCell id="D-a50ixha14DHP2CYBjK-72" value="B = ln |x|-(x/5)" style="rounded=0;whiteSpace=wrap;html=1;" parent="WIyWlLk6GJQsqaUBKTNV-1" vertex="1">
          <mxGeometry x="320" y="980" width="120" height="60" as="geometry" />
        </mxCell>
        <mxCell id="D-a50ixha14DHP2CYBjK-73" value="B = 1+(x&lt;sup&gt;3&lt;/sup&gt;/4)" style="rounded=0;whiteSpace=wrap;html=1;" parent="WIyWlLk6GJQsqaUBKTNV-1" vertex="1">
          <mxGeometry x="60" y="980" width="120" height="60" as="geometry" />
        </mxCell>
        <mxCell id="D-a50ixha14DHP2CYBjK-74" value="" style="endArrow=none;html=1;" parent="WIyWlLk6GJQsqaUBKTNV-1" edge="1">
          <mxGeometry width="50" height="50" relative="1" as="geometry">
            <mxPoint x="379.41" y="1080" as="sourcePoint" />
            <mxPoint x="379.41" y="1040" as="targetPoint" />
          </mxGeometry>
        </mxCell>
        <mxCell id="D-a50ixha14DHP2CYBjK-75" value="" style="endArrow=none;html=1;" parent="WIyWlLk6GJQsqaUBKTNV-1" edge="1">
          <mxGeometry width="50" height="50" relative="1" as="geometry">
            <mxPoint x="119.41" y="1080" as="sourcePoint" />
            <mxPoint x="119.41" y="1040" as="targetPoint" />
          </mxGeometry>
        </mxCell>
        <mxCell id="D-a50ixha14DHP2CYBjK-77" value="" style="endArrow=none;html=1;" parent="WIyWlLk6GJQsqaUBKTNV-1" edge="1">
          <mxGeometry width="50" height="50" relative="1" as="geometry">
            <mxPoint x="120" y="1080" as="sourcePoint" />
            <mxPoint x="380" y="1080" as="targetPoint" />
          </mxGeometry>
        </mxCell>
        <mxCell id="D-a50ixha14DHP2CYBjK-78" value="" style="endArrow=none;html=1;" parent="WIyWlLk6GJQsqaUBKTNV-1" edge="1">
          <mxGeometry width="50" height="50" relative="1" as="geometry">
            <mxPoint x="550" y="1110" as="sourcePoint" />
            <mxPoint x="550" y="930" as="targetPoint" />
          </mxGeometry>
        </mxCell>
        <mxCell id="D-a50ixha14DHP2CYBjK-79" value="" style="endArrow=none;html=1;" parent="WIyWlLk6GJQsqaUBKTNV-1" edge="1">
          <mxGeometry width="50" height="50" relative="1" as="geometry">
            <mxPoint x="250" y="1110" as="sourcePoint" />
            <mxPoint x="250" y="1080" as="targetPoint" />
          </mxGeometry>
        </mxCell>
        <mxCell id="D-a50ixha14DHP2CYBjK-80" value="" style="endArrow=none;html=1;" parent="WIyWlLk6GJQsqaUBKTNV-1" edge="1">
          <mxGeometry width="50" height="50" relative="1" as="geometry">
            <mxPoint x="550" y="1110" as="sourcePoint" />
            <mxPoint x="250" y="1110" as="targetPoint" />
          </mxGeometry>
        </mxCell>
        <mxCell id="D-a50ixha14DHP2CYBjK-81" value="" style="endArrow=classic;html=1;" parent="WIyWlLk6GJQsqaUBKTNV-1" edge="1">
          <mxGeometry width="50" height="50" relative="1" as="geometry">
            <mxPoint x="410" y="1110" as="sourcePoint" />
            <mxPoint x="410" y="1150" as="targetPoint" />
          </mxGeometry>
        </mxCell>
        <mxCell id="D-a50ixha14DHP2CYBjK-82" value="y=A+B" style="rounded=0;whiteSpace=wrap;html=1;" parent="WIyWlLk6GJQsqaUBKTNV-1" vertex="1">
          <mxGeometry x="345" y="1150" width="120" height="60" as="geometry" />
        </mxCell>
        <mxCell id="D-a50ixha14DHP2CYBjK-83" value="" style="endArrow=classic;html=1;" parent="WIyWlLk6GJQsqaUBKTNV-1" edge="1">
          <mxGeometry width="50" height="50" relative="1" as="geometry">
            <mxPoint x="410" y="1210" as="sourcePoint" />
            <mxPoint x="410" y="1250" as="targetPoint" />
          </mxGeometry>
        </mxCell>
        <mxCell id="D-a50ixha14DHP2CYBjK-84" value="y" style="shape=document;whiteSpace=wrap;html=1;boundedLbl=1;" parent="WIyWlLk6GJQsqaUBKTNV-1" vertex="1">
          <mxGeometry x="345" y="1250" width="120" height="80" as="geometry" />
        </mxCell>
        <mxCell id="D-a50ixha14DHP2CYBjK-85" value="" style="endArrow=classic;html=1;" parent="WIyWlLk6GJQsqaUBKTNV-1" edge="1">
          <mxGeometry width="50" height="50" relative="1" as="geometry">
            <mxPoint x="412" y="1315" as="sourcePoint" />
            <mxPoint x="412" y="1350" as="targetPoint" />
          </mxGeometry>
        </mxCell>
        <mxCell id="D-a50ixha14DHP2CYBjK-86" value="Кінець" style="strokeWidth=2;html=1;shape=mxgraph.flowchart.terminator;whiteSpace=wrap;" parent="WIyWlLk6GJQsqaUBKTNV-1" vertex="1">
          <mxGeometry x="335" y="1350" width="150" height="60" as="geometry" />
        </mxCell>
        <mxCell id="T8ELEvgG14GYza1ZXYFS-0" value="" style="shape=image;html=1;verticalAlign=top;verticalLabelPosition=bottom;labelBackgroundColor=#ffffff;imageAspect=0;aspect=fixed;image=https://cdn4.iconfinder.com/data/icons/wirecons-free-vector-icons/32/add-128.png" vertex="1" parent="WIyWlLk6GJQsqaUBKTNV-1">
          <mxGeometry x="485" y="780" width="10" height="10" as="geometry" />
        </mxCell>
        <mxCell id="T8ELEvgG14GYza1ZXYFS-1" value="" style="shape=image;html=1;verticalAlign=top;verticalLabelPosition=bottom;labelBackgroundColor=#ffffff;imageAspect=0;aspect=fixed;image=https://cdn4.iconfinder.com/data/icons/wirecons-free-vector-icons/32/add-128.png" vertex="1" parent="WIyWlLk6GJQsqaUBKTNV-1">
          <mxGeometry x="330" y="920" width="10" height="10" as="geometry" />
        </mxCell>
        <mxCell id="T8ELEvgG14GYza1ZXYFS-2" value="" style="shape=image;html=1;verticalAlign=top;verticalLabelPosition=bottom;labelBackgroundColor=#ffffff;imageAspect=0;aspect=fixed;image=https://cdn4.iconfinder.com/data/icons/ionicons/512/icon-minus-128.png" vertex="1" parent="WIyWlLk6GJQsqaUBKTNV-1">
          <mxGeometry x="160" y="920" width="10" height="10" as="geometry" />
        </mxCell>
        <mxCell id="T8ELEvgG14GYza1ZXYFS-3" value="" style="shape=image;html=1;verticalAlign=top;verticalLabelPosition=bottom;labelBackgroundColor=#ffffff;imageAspect=0;aspect=fixed;image=https://cdn4.iconfinder.com/data/icons/ionicons/512/icon-minus-128.png" vertex="1" parent="WIyWlLk6GJQsqaUBKTNV-1">
          <mxGeometry x="310" y="780" width="10" height="10" as="geometry" />
        </mxCell>
      </root>
    </mxGraphModel>
  </diagram>
</mxfile>
